<svg width="512" height="512" xmlns="http://www.w3.org/2000/svg" xmlns:sketch="http://www.bohemiancoding.com/sketch/ns"><title>twitter</title><path class="orange" d="M446 144.881c-13.993 6.201-29.008 10.367-44.783 12.261 16.108-9.61 28.438-24.829 34.282-42.983-15.086 8.923-31.787 15.385-49.534 18.864-14.207-15.148-34.496-24.568-56.899-24.568-43.096 0-77.996 34.817-77.996 77.705 0 6.107.689 12.024 2.019 17.704-64.81-3.243-122.279-34.154-160.766-81.185-6.676 11.479-10.525 24.829-10.525 39.078 0 26.959 18.008 50.723 38.938 64.664-12.805-.402-31.098-3.929-31.098-9.752v1.018c0 37.634 22.641 69.019 58.301 76.191-6.557 1.752-15.537 2.722-22.665 2.722-5.037 0-10.952-.497-15.751-1.444 9.931 30.888 38.202 53.35 72.318 53.989-26.68 20.805-60.581 33.231-97.097 33.231-6.319 0-12.639-.379-18.745-1.065 34.52 22.012 75.43 34.912 119.476 34.912 143.471 0 221.847-118.393 221.847-221.069 0-3.385-.095-6.746-.261-10.083 15.276-10.935 28.485-24.616 38.938-40.19zm0 0" sketch:type="MSShapeGroup" fill="#808080"/></svg>